<svg aria-hidden="true" style="position: absolute; width: 0; height: 0; overflow: hidden;" version="1.1" xmlns="http://www.w3.org/2000/svg" xmlns:xlink="http://www.w3.org/1999/xlink">
<defs>
<symbol id="theme" viewBox="0 0 32 32">
<path fill="#f3f3f3" style="fill: var(--color1, #f3f3f3)" d="M16 0c8.837 0 16 7.163 16 16s-7.163 16-16 16c-8.837 0-16-7.163-16-16s7.163-16 16-16z"></path>
<path fill="#02897a" style="fill: var(--color2, #02897a)" d="M16 26c5.514 0 10-4.486 10-10s-4.486-10-10-10c-5.514 0-10 4.486-10 10s4.486 10 10 10zM16 8c4.411 0 8 3.589 8 8s-3.589 8-8 8c-4.411 0-8-3.589-8-8s3.589-8 8-8z"></path>
<path fill="#02897a" style="fill: var(--color2, #02897a)" d="M23 16c0-3.866-3.135-7-7-7v14c3.865 0 7-3.134 7-7z"></path>
</symbol>
<symbol id="check" viewBox="0 0 32 32">
<path fill="#f90" style="fill: var(--color3, #f90)" d="M12.759 1.564h6.481c6.085 0 11.018 4.933 11.018 11.018v6.481c0 6.085-4.933 11.018-11.018 11.018h-6.482c-6.085 0-11.018-4.933-11.018-11.018v-6.482c0-6.085 4.933-11.018 11.018-11.018z"></path>
<path fill="none" stroke="#fff" style="stroke: var(--color4, #fff)" stroke-linejoin="miter" stroke-linecap="butt" stroke-miterlimit="4" stroke-width="2.5926" d="M12.759 1.564h6.481c6.085 0 11.018 4.933 11.018 11.018v6.481c0 6.085-4.933 11.018-11.018 11.018h-6.482c-6.085 0-11.018-4.933-11.018-11.018v-6.482c0-6.085 4.933-11.018 11.018-11.018z"></path>
<path fill="none" stroke="#f90" style="stroke: var(--color3, #f90)" stroke-linejoin="miter" stroke-linecap="butt" stroke-miterlimit="4" stroke-width="2.5926" d="M12.759 1.564h6.481c6.085 0 11.018 4.933 11.018 11.018v6.481c0 6.085-4.933 11.018-11.018 11.018h-6.482c-6.085 0-11.018-4.933-11.018-11.018v-6.482c0-6.085 4.933-11.018 11.018-11.018z"></path>
<path fill="#fff" style="fill: var(--color4, #fff)" d="M23.347 11.147c-0.278-0.284-0.728-0.284-1.006 0l-8.52 8.701-3.275-3.344c-0.278-0.284-0.728-0.284-1.006 0s-0.278 0.743 0 1.027l3.778 3.858c0.278 0.284 0.728 0.283 1.006 0l9.022-9.214c0.278-0.284 0.278-0.743 0-1.027z"></path>
</symbol>
<symbol id="cursor" viewBox="0 0 32 32">
<path fill="#02897a" style="fill: var(--color2, #02897a)" d="M11.922 0.607h7.529c6.584 0 11.922 5.337 11.922 11.922v7.529c0 6.584-5.337 11.922-11.922 11.922h-7.529c-6.584 0-11.922-5.337-11.922-11.922v-7.529c0-6.584 5.337-11.922 11.922-11.922z"></path>
<path fill="#fff" style="fill: var(--color4, #fff)" d="M18.269 17.296l-5.737-5.737c-0.067-0.073-0.157-0.106-0.252-0.106-0.045 0-0.095 0.011-0.134 0.028-0.134 0.056-0.224 0.185-0.224 0.331v8.426c0 0.146 0.090 0.274 0.224 0.331 0.039 0.017 0.090 0.028 0.134 0.028 0.095 0 0.185-0.039 0.252-0.106l1.748-1.748 1.070 2.532c0.078 0.179 0.286 0.269 0.471 0.19l0.992-0.42c0.179-0.078 0.269-0.286 0.191-0.471l-1.126-2.667h2.14c0.146 0 0.274-0.090 0.331-0.224 0.056-0.129 0.028-0.286-0.078-0.387z"></path>
</symbol>
<symbol id="heart" viewBox="0 0 31 32">
<path fill="#740a76" style="fill: var(--color5, #740a76)" d="M11.922 0.607h7.529c6.584 0 11.922 5.337 11.922 11.922v7.529c0 6.584-5.337 11.922-11.922 11.922h-7.529c-6.584 0-11.922-5.337-11.922-11.922v-7.529c0-6.584 5.337-11.922 11.922-11.922z"></path>
<path fill="#fff" style="fill: var(--color4, #fff)" d="M15.686 21.403c0.090 0 0.179-0.034 0.247-0.101l3.49-3.361c0.050-0.050 1.283-1.176 1.283-2.521 0-1.641-1.003-2.622-2.678-2.622-0.98 0-1.899 0.773-2.342 1.21-0.443-0.437-1.361-1.21-2.342-1.21-1.675 0-2.678 0.98-2.678 2.622 0 1.345 1.232 2.471 1.277 2.51l3.496 3.373c0.067 0.067 0.157 0.101 0.247 0.101z"></path>
</symbol>
<symbol id="sand-clock" viewBox="0 0 31 32">
<path fill="#f03e3d" style="fill: var(--color6, #f03e3d)" d="M11.922 0.607h7.529c6.584 0 11.922 5.337 11.922 11.922v7.529c0 6.584-5.337 11.922-11.922 11.922h-7.529c-6.584 0-11.922-5.337-11.922-11.922v-7.529c0-6.584 5.337-11.922 11.922-11.922z"></path>
<path fill="#fff" style="fill: var(--color4, #fff)" d="M19.182 12.798h0.538c0.101 0 0.179-0.078 0.179-0.179v-0.359c0-0.101-0.078-0.179-0.179-0.179h-8.247c-0.101 0-0.179 0.078-0.179 0.179v0.359c0 0.101 0.078 0.179 0.179 0.179h0.538c0 2.073 0.992 3.574 2.090 4.303-1.098 0.728-2.090 2.23-2.090 4.302h-0.538c-0.101 0-0.179 0.078-0.179 0.179v0.359c0 0.101 0.078 0.179 0.179 0.179h8.247c0.101 0 0.179-0.078 0.179-0.179v-0.359c0-0.101-0.078-0.179-0.179-0.179h-0.538c0-2.073-0.992-3.574-2.090-4.303 1.098-0.728 2.090-2.23 2.090-4.303zM18.465 12.798c0 0.818-0.185 1.541-0.476 2.151h-4.784c-0.291-0.611-0.476-1.333-0.476-2.151h5.737zM18.146 19.61h-5.098c0.415-1.081 1.16-1.849 1.905-2.151h1.288c0.745 0.303 1.49 1.070 1.905 2.151z"></path>
</symbol>
<symbol id="pulse" viewBox="0 0 31 32">
<path fill="#4d8dff" style="fill: var(--color7, #4d8dff)" d="M11.922 0.607h7.529c6.584 0 11.922 5.337 11.922 11.922v7.529c0 6.584-5.337 11.922-11.922 11.922h-7.529c-6.584 0-11.922-5.337-11.922-11.922v-7.529c0-6.584 5.337-11.922 11.922-11.922z"></path>
<path fill="#fff" style="fill: var(--color4, #fff)" d="M15.989 16.069l0.734 0.342 1.092-0.325v-0.762c0-1.294-1.092-2.331-2.398-2.331-1.3 0-2.398 1.031-2.398 2.314v3.473c0 0.319-0.258 0.571-0.571 0.571s-0.571-0.252-0.571-0.571v-1.468h-1.838c0 1.473 0 1.49 0 1.49 0 1.328 1.076 2.403 2.403 2.403 1.317 0 2.403-1.059 2.403-2.37v-3.429c0-0.314 0.258-0.571 0.571-0.571s0.571 0.258 0.571 0.571v0.661zM18.958 17.313v1.541c0 0.314-0.258 0.566-0.571 0.566s-0.571-0.252-0.571-0.566v-1.513l-1.092 0.325-0.734-0.342v1.501c0 1.317 1.081 2.381 2.403 2.381 1.328 0 2.403-1.076 2.403-2.403 0 0 0-0.017 0-1.49h-1.838z"></path>
</symbol>
<symbol id="menu" viewBox="0 0 32 32">
<path stroke-linejoin="round" stroke-linecap="round" stroke-miterlimit="4" stroke-width="3.0968" d="M5.161 16h21.677"></path>
<path stroke-linejoin="round" stroke-linecap="round" stroke-miterlimit="4" stroke-width="3.0968" d="M5.161 8h21.677"></path>
<path stroke-linejoin="round" stroke-linecap="round" stroke-miterlimit="4" stroke-width="3.0968" d="M5.161 24h21.677"></path>
</symbol>
<symbol id="play" viewBox="0 0 32 32">
<path d="M28.382 14.367c1.245 0.733 1.245 2.534 0 3.266l-23 13.529c-1.263 0.743-2.855-0.168-2.855-1.633v-27.059c0-1.465 1.592-2.376 2.855-1.633l23 13.529z"></path>
</symbol>
<symbol id="close-40" viewBox="0 0 32 32">
<path d="M23.733 10.304l-1.504-1.504-5.963 5.963-5.963-5.963-1.504 1.504 5.963 5.963-5.963 5.963 1.504 1.504 5.963-5.963 5.963 5.963 1.504-1.504-5.963-5.963 5.963-5.963z"></path>
</symbol>
<symbol id="menu-40" viewBox="0 0 32 32">
<path d="M6.4 11.733v-2.133h19.2v2.133h-19.2zM6.4 17.067h19.2v-2.133h-19.2v2.133zM6.4 22.4h19.2v-2.133h-19.2v2.133z"></path>
</symbol>
</defs>
</svg>
